<svg width="16" height="17" viewBox="0 0 16 17" fill="none" xmlns="http://www.w3.org/2000/svg">
<g id="Search" clip-path="url(#clip0_1129_3289)">
<path id="Vector" d="M10.3333 9.5245H9.80667L9.62 9.3445C10.2733 8.5845 10.6667 7.59783 10.6667 6.5245C10.6667 4.13116 8.72667 2.19116 6.33333 2.19116C3.94 2.19116 2 4.13116 2 6.5245C2 8.91783 3.94 10.8578 6.33333 10.8578C7.40667 10.8578 8.39333 10.4645 9.15333 9.81116L9.33333 9.99783V10.5245L12.6667 13.8512L13.66 12.8578L10.3333 9.5245ZM6.33333 9.5245C4.67333 9.5245 3.33333 8.1845 3.33333 6.5245C3.33333 4.8645 4.67333 3.5245 6.33333 3.5245C7.99333 3.5245 9.33333 4.8645 9.33333 6.5245C9.33333 8.1845 7.99333 9.5245 6.33333 9.5245Z" fill="#4C454C"/>
</g>
<defs>
<clipPath id="clip0_1129_3289">
<rect width="16" height="16" fill="white" transform="translate(0 0.191162)"/>
</clipPath>
</defs>
</svg>
